<?xml version="1.0" encoding="UTF-8" standalone="no"?>
<svg
   width="848"
   height="87"
   viewBox="0 103 848 87"
   fill="none"
   version="1.1"
   id="svg2"
   sodipodi:docname="Hands Forum Logo.svg"
   inkscape:version="1.3 (0e150ed6c4, 2023-07-21)"
   xmlns:inkscape="http://www.inkscape.org/namespaces/inkscape"
   xmlns:sodipodi="http://sodipodi.sourceforge.net/DTD/sodipodi-0.dtd"
   xmlns="http://www.w3.org/2000/svg"
   xmlns:svg="http://www.w3.org/2000/svg">
  <sodipodi:namedview
     id="namedview2"
     pagecolor="#ffffff"
     bordercolor="#666666"
     borderopacity="1.0"
     inkscape:showpageshadow="2"
     inkscape:pageopacity="0.0"
     inkscape:pagecheckerboard="0"
     inkscape:deskcolor="#d1d1d1"
     inkscape:zoom="1.1023528"
     inkscape:cx="412.75353"
     inkscape:cy="229.05553"
     inkscape:window-width="1920"
     inkscape:window-height="999"
     inkscape:window-x="0"
     inkscape:window-y="26"
     inkscape:window-maximized="1"
     inkscape:current-layer="svg2" />
  <g
     clip-path="url(#clip0_961_19)"
     id="g2">
    <path
       d="m 81.5508,138.023 v 14.766 H 37.3711 V 138.023 Z M 43.4062,103.688 V 189 H 24.3047 v -85.312 z m 51.3282,0 V 189 H 75.6914 V 103.688 Z M 145.418,119.918 123.387,189 h -20.391 l 31.582,-85.312 h 12.891 z m 18.281,69.082 -22.09,-69.082 -2.285,-16.23 h 13.067 L 184.09,189 Z m -0.937,-31.758 v 14.766 h -44.473 v -14.766 z m 98.789,-53.554 V 189 H 242.508 L 210.281,133.863 V 189 H 191.18 v -85.312 h 19.101 l 32.285,55.136 V 103.688 Z M 302.684,189 h -18.75 l 0.117,-14.766 h 18.633 c 4.257,0 7.851,-0.976 10.781,-2.929 2.93,-1.993 5.156,-4.922 6.68,-8.789 1.523,-3.907 2.285,-8.653 2.285,-14.239 v -3.925 c 0,-4.219 -0.43,-7.93 -1.289,-11.133 -0.86,-3.242 -2.129,-5.957 -3.809,-8.145 -1.68,-2.187 -3.77,-3.828 -6.27,-4.922 -2.46,-1.093 -5.292,-1.64 -8.496,-1.64 h -18.984 v -14.824 h 18.984 c 5.782,0 11.055,0.976 15.821,2.929 4.804,1.953 8.945,4.746 12.422,8.379 3.515,3.633 6.23,7.93 8.144,12.891 1.914,4.961 2.871,10.488 2.871,16.582 v 3.808 c 0,6.055 -0.957,11.582 -2.871,16.582 -1.914,4.961 -4.629,9.258 -8.144,12.891 -3.477,3.594 -7.598,6.367 -12.364,8.32 -4.765,1.953 -10.019,2.93 -15.761,2.93 z m -7.911,-85.312 V 189 h -19.101 v -85.312 z m 102.95,62.812 c 0,-1.445 -0.215,-2.734 -0.645,-3.867 -0.43,-1.172 -1.211,-2.246 -2.344,-3.223 -1.132,-0.976 -2.734,-1.953 -4.804,-2.93 -2.071,-1.015 -4.785,-2.05 -8.145,-3.105 -3.828,-1.25 -7.48,-2.656 -10.957,-4.219 -3.437,-1.601 -6.504,-3.457 -9.199,-5.566 -2.695,-2.11 -4.824,-4.57 -6.387,-7.383 -1.523,-2.812 -2.285,-6.094 -2.285,-9.844 0,-3.633 0.801,-6.914 2.402,-9.843 1.602,-2.93 3.848,-5.43 6.739,-7.5 2.89,-2.11 6.289,-3.711 10.195,-4.805 3.906,-1.133 8.203,-1.699 12.891,-1.699 6.25,0 11.738,1.113 16.464,3.339 4.766,2.188 8.477,5.274 11.133,9.258 2.657,3.946 3.985,8.535 3.985,13.77 h -18.985 c 0,-2.305 -0.488,-4.336 -1.465,-6.094 -0.937,-1.797 -2.382,-3.203 -4.336,-4.219 -1.914,-1.015 -4.316,-1.523 -7.207,-1.523 -2.812,0 -5.175,0.43 -7.089,1.289 -1.875,0.82 -3.301,1.953 -4.278,3.398 -0.937,1.446 -1.406,3.028 -1.406,4.746 0,1.368 0.352,2.618 1.055,3.75 0.742,1.094 1.797,2.129 3.164,3.106 1.406,0.937 3.125,1.836 5.156,2.695 2.031,0.86 4.355,1.68 6.973,2.461 4.57,1.446 8.613,3.047 12.129,4.805 3.554,1.758 6.543,3.75 8.964,5.976 2.422,2.227 4.239,4.747 5.45,7.559 1.25,2.813 1.875,5.996 1.875,9.551 0,3.789 -0.743,7.148 -2.227,10.078 -1.445,2.93 -3.555,5.43 -6.328,7.5 -2.734,2.031 -6.016,3.574 -9.844,4.629 -3.828,1.055 -8.105,1.582 -12.832,1.582 -4.297,0 -8.535,-0.547 -12.715,-1.641 -4.179,-1.133 -7.968,-2.851 -11.367,-5.156 -3.359,-2.305 -6.055,-5.234 -8.086,-8.789 -1.992,-3.594 -2.988,-7.852 -2.988,-12.774 h 19.101 c 0,2.579 0.372,4.766 1.114,6.563 0.742,1.758 1.797,3.184 3.164,4.277 1.406,1.094 3.105,1.875 5.097,2.344 1.993,0.469 4.219,0.703 6.68,0.703 2.852,0 5.156,-0.39 6.914,-1.172 1.797,-0.82 3.125,-1.933 3.985,-3.339 0.859,-1.407 1.289,-2.969 1.289,-4.688 z"
       fill="#333333"
       id="path1" />
    <path
       d="M 447.117,103.688 V 189 h -19.101 v -85.312 z m 33.574,35.976 v 14.766 h -38.906 v -14.766 z m 3.75,-35.976 v 14.824 h -42.656 v -14.824 z m 80.45,40.781 v 3.808 c 0,6.485 -0.899,12.305 -2.696,17.461 -1.757,5.157 -4.277,9.551 -7.558,13.184 -3.242,3.633 -7.11,6.426 -11.602,8.379 -4.453,1.914 -9.394,2.871 -14.824,2.871 -5.43,0 -10.391,-0.957 -14.883,-2.871 -4.492,-1.953 -8.398,-4.746 -11.719,-8.379 -3.281,-3.633 -5.82,-8.027 -7.617,-13.184 -1.797,-5.156 -2.695,-10.976 -2.695,-17.461 v -3.808 c 0,-6.485 0.898,-12.305 2.695,-17.461 1.797,-5.196 4.317,-9.61 7.559,-13.242 3.281,-3.633 7.168,-6.407 11.66,-8.321 4.492,-1.953 9.453,-2.929 14.883,-2.929 5.429,0 10.39,0.976 14.883,2.929 4.492,1.914 8.359,4.688 11.601,8.321 3.281,3.632 5.82,8.046 7.617,13.242 1.797,5.156 2.696,10.976 2.696,17.461 z m -19.278,3.808 v -3.925 c 0,-4.336 -0.39,-8.164 -1.172,-11.485 -0.781,-3.359 -1.914,-6.172 -3.398,-8.437 -1.484,-2.266 -3.32,-3.965 -5.508,-5.098 -2.187,-1.172 -4.668,-1.758 -7.441,-1.758 -2.891,0 -5.41,0.586 -7.559,1.758 -2.148,1.133 -3.965,2.832 -5.449,5.098 -1.445,2.265 -2.559,5.078 -3.34,8.437 -0.742,3.321 -1.113,7.149 -1.113,11.485 v 3.925 c 0,4.297 0.371,8.125 1.113,11.485 0.781,3.32 1.914,6.133 3.399,8.437 1.484,2.305 3.3,4.043 5.449,5.215 2.187,1.172 4.726,1.758 7.617,1.758 2.773,0 5.234,-0.586 7.383,-1.758 2.187,-1.172 4.023,-2.91 5.508,-5.215 1.484,-2.304 2.597,-5.117 3.339,-8.437 0.782,-3.36 1.172,-7.188 1.172,-11.485 z m 30.996,-44.589 h 32.754 c 6.524,0 12.168,0.976 16.934,2.929 4.805,1.953 8.496,4.844 11.074,8.672 2.578,3.828 3.867,8.555 3.867,14.18 0,4.687 -0.761,8.672 -2.285,11.953 -1.523,3.281 -3.672,5.996 -6.445,8.144 -2.735,2.149 -5.938,3.887 -9.61,5.215 l -6.21,3.399 h -27.891 l -0.117,-14.825 h 20.742 c 2.851,0 5.215,-0.507 7.09,-1.523 1.875,-1.016 3.281,-2.441 4.218,-4.277 0.977,-1.875 1.465,-4.063 1.465,-6.563 0,-2.578 -0.488,-4.804 -1.465,-6.68 -0.976,-1.874 -2.421,-3.3 -4.335,-4.277 -1.875,-1.015 -4.219,-1.523 -7.032,-1.523 H 595.711 V 189 h -19.102 z m 47.227,85.312 -19.16,-37.91 20.156,-0.059 19.453,37.09 V 189 Z m 77.051,-85.312 h 19.101 v 56.015 c 0,6.641 -1.406,12.227 -4.218,16.758 -2.774,4.531 -6.641,7.949 -11.602,10.254 -4.961,2.305 -10.703,3.457 -17.227,3.457 -6.562,0 -12.343,-1.152 -17.343,-3.457 -4.961,-2.305 -8.868,-5.723 -11.719,-10.254 -2.813,-4.531 -4.219,-10.117 -4.219,-16.758 v -56.015 h 19.16 v 56.015 c 0,3.672 0.547,6.68 1.641,9.024 1.133,2.304 2.754,4.003 4.863,5.097 2.11,1.055 4.649,1.582 7.617,1.582 2.969,0 5.489,-0.527 7.559,-1.582 2.109,-1.094 3.691,-2.793 4.746,-5.097 1.094,-2.344 1.641,-5.352 1.641,-9.024 z m 41.894,0 h 15.821 l 20.507,60.996 20.45,-60.996 h 15.82 L 785.496,189 h -12.832 z m -9.14,0 h 16.113 l 2.988,63.222 V 189 h -19.101 z m 74.765,0 h 16.172 V 189 h -19.16 v -22.09 z"
       fill="#0065bd"
       id="path2" />
  </g>
  <defs
     id="defs2">
    <clipPath
       id="clip0_961_19">
      <rect
         width="848"
         height="296"
         fill="#ffffff"
         id="rect2"
         x="0"
         y="0" />
    </clipPath>
  </defs>
</svg>
