<?xml version="1.0" encoding="UTF-8" standalone="no"?>
<svg
   width="297.77899"
   height="121.92683"
   viewBox="0 0 297.77899 121.92683"
   fill="none"
   version="1.1"
   id="svg18"
   sodipodi:docname="Enhands_Full_Logo copy.svg"
   inkscape:version="1.2.2 (b0a8486541, 2022-12-01)"
   xmlns:inkscape="http://www.inkscape.org/namespaces/inkscape"
   xmlns:sodipodi="http://sodipodi.sourceforge.net/DTD/sodipodi-0.dtd"
   xmlns="http://www.w3.org/2000/svg"
   xmlns:svg="http://www.w3.org/2000/svg">
  <defs
     id="defs22" />
  <sodipodi:namedview
     id="namedview20"
     pagecolor="#ffffff"
     bordercolor="#666666"
     borderopacity="1.0"
     inkscape:showpageshadow="2"
     inkscape:pageopacity="0.0"
     inkscape:pagecheckerboard="0"
     inkscape:deskcolor="#d1d1d1"
     showgrid="false"
     inkscape:zoom="3.7180233"
     inkscape:cx="150.21423"
     inkscape:cy="63.474589"
     inkscape:window-width="1920"
     inkscape:window-height="999"
     inkscape:window-x="0"
     inkscape:window-y="26"
     inkscape:window-maximized="1"
     inkscape:current-layer="svg18" />
  <rect
     x="0"
     y="113.06283"
     width="40"
     height="8"
     rx="4"
     fill="#0065bd"
     id="rect4" />
  <rect
     width="8.9999981"
     height="59.257595"
     rx="4.499999"
     transform="matrix(0.87646417,-0.48146709,0.45971202,0.88806805,0,0)"
     fill="#0065bd"
     id="rect6"
     x="-7.2637229"
     y="20.308786" />
  <rect
     width="8.9999981"
     height="71.8274"
     rx="4.499999"
     transform="matrix(0.87646417,-0.48146709,0.45971202,0.88806805,0,0)"
     fill="#0065bd"
     fill-opacity="0.9"
     id="rect8"
     x="8.6252003"
     y="7.7390213" />
  <rect
     width="8.9999981"
     height="59.257595"
     rx="4.499999"
     transform="matrix(0.87646417,-0.48146709,0.45971202,0.88806805,0,0)"
     fill="#0065bd"
     fill-opacity="0.8"
     id="rect10"
     x="25.3967"
     y="20.308807" />
  <rect
     width="8.9999981"
     height="46.338097"
     rx="4.499999"
     transform="matrix(0.87646417,-0.48146709,0.45971202,0.88806805,0,0)"
     fill="#0065bd"
     fill-opacity="0.7"
     id="rect12"
     x="41.285469"
     y="33.228336" />
  <path
     d="m 92,66.251227 c -1.817,-0.6775 -3.886,-1.9012 -5.783,-3.1846 -3.675,-2.4861 -8.5935,-2.5302 -12.0912,0.2002 -6.0999,4.7615 -9.3337,6.3675 -15.4591,9.3742 m 0,0 c -4.792,2.3522 -9.8933,4.5683 -15.8998,6.4862 -5.461,1.7436 -8.2064,7.6593 -4.4135,11.9576 7.8375,8.883 23.9309,21.584003 53.6466,25.302003 M 58.6667,72.641027 c 7.619,9.339 14.2857,15.7288 33.3333,18.6778"
     stroke="#000000"
     stroke-opacity="0.8"
     stroke-width="9"
     stroke-linecap="round"
     id="path14" />
  <path
     d="m 108.588,121.38683 c -0.828,0 -1.548,-0.306 -2.16,-0.918 -0.576,-0.612 -0.864,-1.332 -0.864,-2.16 V 96.384827 c 0,-0.828 0.288,-1.548 0.864,-2.16 0.612,-0.612 1.332,-0.918 2.16,-0.918 h 2.214 c 0.864,0 1.584,0.306 2.16,0.918 0.612,0.576 0.936,1.296 0.972,2.16 l 0.054,0.432 c 0,0.036 0.018,0.054 0.054,0.054 l 0.108,-0.108 c 2.34,-2.664 5.148,-3.996 8.424,-3.996 3.276,0 5.634,0.936 7.074,2.808 1.44,1.836 2.16,4.986003 2.16,9.450003 v 13.284 c 0,0.828 -0.306,1.548 -0.918,2.16 -0.576,0.612 -1.278,0.918 -2.106,0.918 h -2.376 c -0.828,0 -1.548,-0.306 -2.16,-0.918 -0.612,-0.612 -0.918,-1.332 -0.918,-2.16 v -13.014 c 0,-2.16 -0.288,-3.636 -0.864,-4.428 -0.576,-0.828 -1.62,-1.242003 -3.132,-1.242003 -1.26,0 -2.43,0.522003 -3.51,1.566003 -1.044,1.008 -1.566,2.106 -1.566,3.294 v 13.824 c 0,0.828 -0.306,1.548 -0.918,2.16 -0.576,0.612 -1.278,0.918 -2.106,0.918 z m 33.711,0 c -0.828,0 -1.548,-0.306 -2.16,-0.918 -0.612,-0.612 -0.918,-1.332 -0.918,-2.16 V 85.044827 c 0,-0.828 0.306,-1.548 0.918,-2.16 0.612,-0.612 1.332,-0.918 2.16,-0.918 h 3.078 c 0.828,0 1.53,0.306 2.106,0.918 0.612,0.612 0.918,1.332 0.918,2.16 v 11.88 c 0,0.324 0.162,0.486 0.486,0.486 h 11.124 c 0.324,0 0.486,-0.162 0.486,-0.486 v -11.88 c 0,-0.828 0.288,-1.548 0.864,-2.16 0.612,-0.612 1.332,-0.918 2.16,-0.918 h 3.078 c 0.828,0 1.548,0.306 2.16,0.918 0.612,0.612 0.918,1.332 0.918,2.16 v 33.264003 c 0,0.828 -0.306,1.548 -0.918,2.16 -0.612,0.612 -1.332,0.918 -2.16,0.918 h -3.078 c -0.828,0 -1.548,-0.306 -2.16,-0.918 -0.576,-0.612 -0.864,-1.332 -0.864,-2.16 v -13.5 c 0,-0.288 -0.162,-0.432 -0.486,-0.432 h -11.124 c -0.324,0 -0.486,0.144 -0.486,0.432 v 13.5 c 0,0.828 -0.306,1.548 -0.918,2.16 -0.576,0.612 -1.278,0.918 -2.106,0.918 z m 48.266,-12.852 c -4.392,0 -6.588,1.35 -6.588,4.05 0,0.972 0.288,1.746 0.864,2.322 0.576,0.54 1.35,0.81 2.322,0.81 1.728,0 3.132,-0.54 4.212,-1.62 1.08,-1.116 1.62,-2.592 1.62,-4.428 v -0.648 c 0,-0.324 -0.162,-0.486 -0.486,-0.486 z m -6.048,13.392 c -2.484,0 -4.536,-0.792 -6.156,-2.376 -1.584,-1.62 -2.376,-3.708 -2.376,-6.264 0,-6.552 4.86,-9.828 14.58,-9.828 h 1.944 c 0.324,0 0.486,-0.144 0.486,-0.432 v -0.27 c 0,-1.368 -0.36,-2.358 -1.08,-2.970003 -0.684,-0.612 -1.854,-0.918 -3.51,-0.918 -2.196,0 -4.824,0.342 -7.884,1.026 -0.756,0.144003 -1.44,-0.018 -2.052,-0.486 -0.576,-0.468 -0.864,-1.08 -0.864,-1.836 v -0.108 c 0,-0.9 0.27,-1.71 0.81,-2.43 0.576,-0.756 1.296,-1.206 2.16,-1.35 3.168,-0.612 5.904,-0.918 8.208,-0.918 4.716,0 8.046,0.846 9.99,2.538 1.98,1.692 2.97,4.5 2.97,8.424003 v 14.58 c 0,0.828 -0.306,1.548 -0.918,2.16 -0.612,0.612 -1.332,0.918 -2.16,0.918 h -1.998 c -0.864,0 -1.602,-0.288 -2.214,-0.864 -0.612,-0.612 -0.936,-1.35 -0.972,-2.214 v -0.594 c 0,-0.036 -0.018,-0.054 -0.054,-0.054 -0.072,0 -0.108,0.018 -0.108,0.054 -2.268,2.808 -5.202,4.212 -8.802,4.212 z m 27.114,-0.54 c -0.828,0 -1.548,-0.306 -2.16,-0.918 -0.576,-0.612 -0.864,-1.332 -0.864,-2.16 V 96.384827 c 0,-0.828 0.288,-1.548 0.864,-2.16 0.612,-0.612 1.332,-0.918 2.16,-0.918 h 2.214 c 0.864,0 1.584,0.306 2.16,0.918 0.612,0.576 0.936,1.296 0.972,2.16 l 0.054,0.432 c 0,0.036 0.018,0.054 0.054,0.054 l 0.108,-0.108 c 2.34,-2.664 5.148,-3.996 8.424,-3.996 3.276,0 5.634,0.936 7.074,2.808 1.44,1.836 2.16,4.986003 2.16,9.450003 v 13.284 c 0,0.828 -0.306,1.548 -0.918,2.16 -0.576,0.612 -1.278,0.918 -2.106,0.918 h -2.376 c -0.828,0 -1.548,-0.306 -2.16,-0.918 -0.612,-0.612 -0.918,-1.332 -0.918,-2.16 v -13.014 c 0,-2.16 -0.288,-3.636 -0.864,-4.428 -0.576,-0.828 -1.62,-1.242003 -3.132,-1.242003 -1.26,0 -2.43,0.522003 -3.51,1.566003 -1.044,1.008 -1.566,2.106 -1.566,3.294 v 13.824 c 0,0.828 -0.306,1.548 -0.918,2.16 -0.576,0.612 -1.278,0.918 -2.106,0.918 z m 42.405,-22.140003 c -3.6,0 -5.4,2.700003 -5.4,8.100003 0,2.736 0.486,4.77 1.458,6.102 0.972,1.332 2.286,1.998 3.942,1.998 1.44,0 2.7,-0.486 3.78,-1.458 1.08,-0.972 1.62,-2.07 1.62,-3.294 v -6.696 c 0,-1.224 -0.54,-2.322 -1.62,-3.294 -1.08,-0.972003 -2.34,-1.458003 -3.78,-1.458003 z m -2.97,22.680003 c -3.204,0 -5.832,-1.278 -7.884,-3.834 -2.052,-2.592 -3.078,-6.174 -3.078,-10.746 0,-4.68 0.99,-8.280003 2.97,-10.800003 1.98,-2.52 4.644,-3.78 7.992,-3.78 2.952,0 5.634,1.098 8.046,3.294 0.036,0.036 0.072,0.054 0.108,0.054 0.036,0 0.054,-0.018 0.054,-0.054 v -12.096 c 0,-0.828 0.288,-1.548 0.864,-2.16 0.612,-0.612 1.332,-0.918 2.16,-0.918 h 2.646 c 0.828,0 1.53,0.306 2.106,0.918 0.612,0.612 0.918,1.332 0.918,2.16 v 34.344003 c 0,0.828 -0.306,1.548 -0.918,2.16 -0.576,0.612 -1.278,0.918 -2.106,0.918 h -2.052 c -0.864,0 -1.602,-0.288 -2.214,-0.864 -0.576,-0.612 -0.882,-1.35 -0.918,-2.214 v -0.432 c 0,-0.036 -0.018,-0.054 -0.054,-0.054 l -0.108,0.108 c -2.268,2.664 -5.112,3.996 -8.532,3.996 z m 34.347,-11.34 c -3.888,-0.72 -6.678,-1.836 -8.37,-3.348 -1.656,-1.512 -2.484,-3.51 -2.484,-5.994 0,-2.664003 0.99,-4.734003 2.97,-6.210003 2.016,-1.512 5.04,-2.268 9.072,-2.268 2.376,0 4.806,0.198 7.29,0.594 0.864,0.144 1.566,0.558 2.106,1.242 0.576,0.684 0.864,1.476 0.864,2.376 v 0.27 c 0,0.756 -0.306,1.368 -0.918,1.836 -0.576,0.468 -1.242,0.63 -1.998,0.486 -2.34,-0.468 -4.5,-0.702 -6.48,-0.702 -1.476,0 -2.52,0.18 -3.132,0.54 -0.576,0.36 -0.864,0.900003 -0.864,1.620003 0,1.368 1.08,2.268 3.24,2.7 4.104,0.684 6.966,1.764 8.586,3.24 1.656,1.476 2.484,3.618 2.484,6.426 0,2.7 -1.008,4.806 -3.024,6.318 -2.016,1.476 -4.95,2.214 -8.802,2.214 -2.808,0 -5.472,-0.27 -7.992,-0.81 -0.864,-0.18 -1.584,-0.63 -2.16,-1.35 -0.54,-0.756 -0.81,-1.602 -0.81,-2.538 v -0.432 c 0,-0.756 0.306,-1.332 0.918,-1.728 0.612,-0.432 1.296,-0.558 2.052,-0.378 2.34,0.612 4.644,0.918 6.912,0.918 2.664,0 3.996,-0.774 3.996,-2.322 0,-0.72 -0.252,-1.278 -0.756,-1.674 -0.468,-0.396 -1.368,-0.738 -2.7,-1.026 z"
     fill="#000000"
     fill-opacity="0.8"
     id="path16" />
</svg>
