<?xml version="1.0" encoding="UTF-8" standalone="no"?>
<svg
   width="344"
   height="148"
   viewBox="0 0 344 148"
   fill="none"
   version="1.1"
   id="svg18"
   sodipodi:docname="enhands-no-background.svg"
   inkscape:version="1.2.1 (9c6d41e410, 2022-07-14, custom)"
   xmlns:inkscape="http://www.inkscape.org/namespaces/inkscape"
   xmlns:sodipodi="http://sodipodi.sourceforge.net/DTD/sodipodi-0.dtd"
   xmlns="http://www.w3.org/2000/svg"
   xmlns:svg="http://www.w3.org/2000/svg">
  <defs
     id="defs22" />
  <sodipodi:namedview
     id="namedview20"
     pagecolor="#ffffff"
     bordercolor="#666666"
     borderopacity="1.0"
     inkscape:showpageshadow="2"
     inkscape:pageopacity="0.0"
     inkscape:pagecheckerboard="0"
     inkscape:deskcolor="#d1d1d1"
     showgrid="false"
     inkscape:zoom="3.7180233"
     inkscape:cx="172"
     inkscape:cy="73.964034"
     inkscape:window-width="1920"
     inkscape:window-height="999"
     inkscape:window-x="0"
     inkscape:window-y="26"
     inkscape:window-maximized="1"
     inkscape:current-layer="svg18" />
  <rect
     x="22"
     y="123.676"
     width="40"
     height="8"
     rx="4"
     fill="#0065BD "
     id="rect4" />
  <rect
     width="9"
     height="59.2576"
     rx="4.5"
     transform="matrix(0.876464 -0.481467 0.459712 0.888068 24.9698 32.146)"
     fill="#0065BD "
     id="rect6" />
  <rect
     width="9"
     height="71.8274"
     rx="4.5"
     transform="matrix(0.876464 -0.481467 0.459712 0.888068 33.1174 13.3332)"
     fill="#0065BD "
     fill-opacity="0.9"
     id="rect8" />
  <rect
     width="9"
     height="59.2576"
     rx="4.5"
     transform="matrix(0.876464 -0.481467 0.459712 0.888068 53.5955 16.4211)"
     fill="#0065BD "
     fill-opacity="0.8"
     id="rect10" />
  <rect
     width="9"
     height="46.3381"
     rx="4.5"
     transform="matrix(0.876464 -0.481467 0.459712 0.888068 73.4607 20.2446)"
     fill="#0065BD "
     fill-opacity="0.7"
     id="rect12" />
  <path
     d="M114 76.8644C112.183 76.1869 110.114 74.9632 108.217 73.6798C104.542 71.1937 99.6235 71.1496 96.1258 73.88C90.0259 78.6415 86.7921 80.2475 80.6667 83.2542M80.6667 83.2542C75.8747 85.6064 70.7734 87.8225 64.7669 89.7404C59.3059 91.484 56.5605 97.3997 60.3534 101.698C68.1909 110.581 84.2843 123.282 114 127M80.6667 83.2542C88.2857 92.5932 94.9524 98.983 114 101.932"
     stroke="black"
     stroke-opacity="0.8"
     stroke-width="9"
     stroke-linecap="round"
     id="path14" />
  <path
     d="M130.588 132C129.76 132 129.04 131.694 128.428 131.082C127.852 130.47 127.564 129.75 127.564 128.922V106.998C127.564 106.17 127.852 105.45 128.428 104.838C129.04 104.226 129.76 103.92 130.588 103.92H132.802C133.666 103.92 134.386 104.226 134.962 104.838C135.574 105.414 135.898 106.134 135.934 106.998L135.988 107.43C135.988 107.466 136.006 107.484 136.042 107.484L136.15 107.376C138.49 104.712 141.298 103.38 144.574 103.38C147.85 103.38 150.208 104.316 151.648 106.188C153.088 108.024 153.808 111.174 153.808 115.638V128.922C153.808 129.75 153.502 130.47 152.89 131.082C152.314 131.694 151.612 132 150.784 132H148.408C147.58 132 146.86 131.694 146.248 131.082C145.636 130.47 145.33 129.75 145.33 128.922V115.908C145.33 113.748 145.042 112.272 144.466 111.48C143.89 110.652 142.846 110.238 141.334 110.238C140.074 110.238 138.904 110.76 137.824 111.804C136.78 112.812 136.258 113.91 136.258 115.098V128.922C136.258 129.75 135.952 130.47 135.34 131.082C134.764 131.694 134.062 132 133.234 132H130.588ZM164.299 132C163.471 132 162.751 131.694 162.139 131.082C161.527 130.47 161.221 129.75 161.221 128.922V95.658C161.221 94.83 161.527 94.11 162.139 93.498C162.751 92.886 163.471 92.58 164.299 92.58H167.377C168.205 92.58 168.907 92.886 169.483 93.498C170.095 94.11 170.401 94.83 170.401 95.658V107.538C170.401 107.862 170.563 108.024 170.887 108.024H182.011C182.335 108.024 182.497 107.862 182.497 107.538V95.658C182.497 94.83 182.785 94.11 183.361 93.498C183.973 92.886 184.693 92.58 185.521 92.58H188.599C189.427 92.58 190.147 92.886 190.759 93.498C191.371 94.11 191.677 94.83 191.677 95.658V128.922C191.677 129.75 191.371 130.47 190.759 131.082C190.147 131.694 189.427 132 188.599 132H185.521C184.693 132 183.973 131.694 183.361 131.082C182.785 130.47 182.497 129.75 182.497 128.922V115.422C182.497 115.134 182.335 114.99 182.011 114.99H170.887C170.563 114.99 170.401 115.134 170.401 115.422V128.922C170.401 129.75 170.095 130.47 169.483 131.082C168.907 131.694 168.205 132 167.377 132H164.299ZM212.565 119.148C208.173 119.148 205.977 120.498 205.977 123.198C205.977 124.17 206.265 124.944 206.841 125.52C207.417 126.06 208.191 126.33 209.163 126.33C210.891 126.33 212.295 125.79 213.375 124.71C214.455 123.594 214.995 122.118 214.995 120.282V119.634C214.995 119.31 214.833 119.148 214.509 119.148H212.565ZM206.517 132.54C204.033 132.54 201.981 131.748 200.361 130.164C198.777 128.544 197.985 126.456 197.985 123.9C197.985 117.348 202.845 114.072 212.565 114.072H214.509C214.833 114.072 214.995 113.928 214.995 113.64V113.37C214.995 112.002 214.635 111.012 213.915 110.4C213.231 109.788 212.061 109.482 210.405 109.482C208.209 109.482 205.581 109.824 202.521 110.508C201.765 110.652 201.081 110.49 200.469 110.022C199.893 109.554 199.605 108.942 199.605 108.186V108.078C199.605 107.178 199.875 106.368 200.415 105.648C200.991 104.892 201.711 104.442 202.575 104.298C205.743 103.686 208.479 103.38 210.783 103.38C215.499 103.38 218.829 104.226 220.773 105.918C222.753 107.61 223.743 110.418 223.743 114.342V128.922C223.743 129.75 223.437 130.47 222.825 131.082C222.213 131.694 221.493 132 220.665 132H218.667C217.803 132 217.065 131.712 216.453 131.136C215.841 130.524 215.517 129.786 215.481 128.922V128.328C215.481 128.292 215.463 128.274 215.427 128.274C215.355 128.274 215.319 128.292 215.319 128.328C213.051 131.136 210.117 132.54 206.517 132.54ZM233.631 132C232.803 132 232.083 131.694 231.471 131.082C230.895 130.47 230.607 129.75 230.607 128.922V106.998C230.607 106.17 230.895 105.45 231.471 104.838C232.083 104.226 232.803 103.92 233.631 103.92H235.845C236.709 103.92 237.429 104.226 238.005 104.838C238.617 105.414 238.941 106.134 238.977 106.998L239.031 107.43C239.031 107.466 239.049 107.484 239.085 107.484L239.193 107.376C241.533 104.712 244.341 103.38 247.617 103.38C250.893 103.38 253.251 104.316 254.691 106.188C256.131 108.024 256.851 111.174 256.851 115.638V128.922C256.851 129.75 256.545 130.47 255.933 131.082C255.357 131.694 254.655 132 253.827 132H251.451C250.623 132 249.903 131.694 249.291 131.082C248.679 130.47 248.373 129.75 248.373 128.922V115.908C248.373 113.748 248.085 112.272 247.509 111.48C246.933 110.652 245.889 110.238 244.377 110.238C243.117 110.238 241.947 110.76 240.867 111.804C239.823 112.812 239.301 113.91 239.301 115.098V128.922C239.301 129.75 238.995 130.47 238.383 131.082C237.807 131.694 237.105 132 236.277 132H233.631ZM276.036 109.86C272.436 109.86 270.636 112.56 270.636 117.96C270.636 120.696 271.122 122.73 272.094 124.062C273.066 125.394 274.38 126.06 276.036 126.06C277.476 126.06 278.736 125.574 279.816 124.602C280.896 123.63 281.436 122.532 281.436 121.308V114.612C281.436 113.388 280.896 112.29 279.816 111.318C278.736 110.346 277.476 109.86 276.036 109.86ZM273.066 132.54C269.862 132.54 267.234 131.262 265.182 128.706C263.13 126.114 262.104 122.532 262.104 117.96C262.104 113.28 263.094 109.68 265.074 107.16C267.054 104.64 269.718 103.38 273.066 103.38C276.018 103.38 278.7 104.478 281.112 106.674C281.148 106.71 281.184 106.728 281.22 106.728C281.256 106.728 281.274 106.71 281.274 106.674V94.578C281.274 93.75 281.562 93.03 282.138 92.418C282.75 91.806 283.47 91.5 284.298 91.5H286.944C287.772 91.5 288.474 91.806 289.05 92.418C289.662 93.03 289.968 93.75 289.968 94.578V128.922C289.968 129.75 289.662 130.47 289.05 131.082C288.474 131.694 287.772 132 286.944 132H284.892C284.028 132 283.29 131.712 282.678 131.136C282.102 130.524 281.796 129.786 281.76 128.922V128.49C281.76 128.454 281.742 128.436 281.706 128.436L281.598 128.544C279.33 131.208 276.486 132.54 273.066 132.54ZM307.413 121.2C303.525 120.48 300.735 119.364 299.043 117.852C297.387 116.34 296.559 114.342 296.559 111.858C296.559 109.194 297.549 107.124 299.529 105.648C301.545 104.136 304.569 103.38 308.601 103.38C310.977 103.38 313.407 103.578 315.891 103.974C316.755 104.118 317.457 104.532 317.997 105.216C318.573 105.9 318.861 106.692 318.861 107.592V107.862C318.861 108.618 318.555 109.23 317.943 109.698C317.367 110.166 316.701 110.328 315.945 110.184C313.605 109.716 311.445 109.482 309.465 109.482C307.989 109.482 306.945 109.662 306.333 110.022C305.757 110.382 305.469 110.922 305.469 111.642C305.469 113.01 306.549 113.91 308.709 114.342C312.813 115.026 315.675 116.106 317.295 117.582C318.951 119.058 319.779 121.2 319.779 124.008C319.779 126.708 318.771 128.814 316.755 130.326C314.739 131.802 311.805 132.54 307.953 132.54C305.145 132.54 302.481 132.27 299.961 131.73C299.097 131.55 298.377 131.1 297.801 130.38C297.261 129.624 296.991 128.778 296.991 127.842V127.41C296.991 126.654 297.297 126.078 297.909 125.682C298.521 125.25 299.205 125.124 299.961 125.304C302.301 125.916 304.605 126.222 306.873 126.222C309.537 126.222 310.869 125.448 310.869 123.9C310.869 123.18 310.617 122.622 310.113 122.226C309.645 121.83 308.745 121.488 307.413 121.2Z"
     fill="black"
     fill-opacity="0.8"
     id="path16" />
</svg>
