<?xml version="1.0" encoding="UTF-8" standalone="no"?>
<svg
   width="439.77899"
   height="134.89102"
   viewBox="0 0 439.77899 134.89102"
   fill="none"
   version="1.1"
   id="svg206"
   sodipodi:docname="Group 10.svg"
   inkscape:version="1.2.2 (b0a8486541, 2022-12-01)"
   xmlns:inkscape="http://www.inkscape.org/namespaces/inkscape"
   xmlns:sodipodi="http://sodipodi.sourceforge.net/DTD/sodipodi-0.dtd"
   xmlns="http://www.w3.org/2000/svg"
   xmlns:svg="http://www.w3.org/2000/svg">
  <defs
     id="defs210" />
  <sodipodi:namedview
     id="namedview208"
     pagecolor="#ffffff"
     bordercolor="#666666"
     borderopacity="1.0"
     inkscape:showpageshadow="2"
     inkscape:pageopacity="0.0"
     inkscape:pagecheckerboard="0"
     inkscape:deskcolor="#d1d1d1"
     showgrid="false"
     inkscape:zoom="2.4834951"
     inkscape:cx="257.5"
     inkscape:cy="68.451916"
     inkscape:window-width="1920"
     inkscape:window-height="999"
     inkscape:window-x="0"
     inkscape:window-y="26"
     inkscape:window-maximized="1"
     inkscape:current-layer="svg206" />
  <path
     d="M 318.928,121.38702 V 79.659017 H 333.2 c 2.901,0 5.504,0.32 7.808,0.96 2.304,0.5973 4.139,1.6427 5.504,3.136 1.365,1.4933 2.048,3.584 2.048,6.272 0,1.8347 -0.491,3.648 -1.472,5.44 -0.939,1.7493 -2.261,2.944 -3.968,3.584 v 0.256 c 2.133,0.555 3.904,1.643003 5.312,3.264003 1.451,1.579 2.176,3.755 2.176,6.528 0,2.859 -0.725,5.184 -2.176,6.976 -1.451,1.792 -3.392,3.136 -5.824,4.032 -2.432,0.853 -5.163,1.28 -8.192,1.28 z m 9.408,-25.024003 h 4.416 c 2.304,0 3.968,-0.448 4.992,-1.344 1.067,-0.896 1.6,-2.0907 1.6,-3.584 0,-1.6213 -0.533,-2.7733 -1.6,-3.456 -1.067,-0.6827 -2.709,-1.024 -4.928,-1.024 h -4.48 z m 0,17.728003 h 5.312 c 5.163,0 7.744,-1.877 7.744,-5.632 0,-1.835 -0.64,-3.136 -1.92,-3.904 -1.28,-0.811 -3.221,-1.216 -5.824,-1.216 h -5.312 z m 37.214,8.064 c -3.243,0 -5.504,-0.96 -6.784,-2.88 -1.237,-1.963 -1.856,-4.544 -1.856,-7.744 V 76.523017 h 9.408 v 35.392003 c 0,0.981 0.171,1.664 0.512,2.048 0.384,0.384 0.768,0.576 1.152,0.576 0.213,0 0.384,0 0.512,0 0.171,-0.043 0.384,-0.085 0.64,-0.128 l 1.152,6.976 c -0.512,0.213 -1.173,0.384 -1.984,0.512 -0.768,0.171 -1.685,0.256 -2.752,0.256 z m 23.305,0 c -2.688,0 -5.227,-0.64 -7.616,-1.92 -2.347,-1.323 -4.246,-3.221 -5.696,-5.696 -1.451,-2.517 -2.176,-5.525 -2.176,-9.024 0,-3.541 0.725,-6.549003 2.176,-9.024003 1.45,-2.4747 3.349,-4.352 5.696,-5.632 2.389,-1.3227 4.928,-1.984 7.616,-1.984 2.688,0 5.205,0.6613 7.552,1.984 2.346,1.28 4.245,3.1573 5.696,5.632 1.45,2.475 2.176,5.483003 2.176,9.024003 0,3.499 -0.726,6.507 -2.176,9.024 -1.451,2.475 -3.35,4.373 -5.696,5.696 -2.347,1.28 -4.864,1.92 -7.552,1.92 z m 0,-7.616 c 1.92,0 3.37,-0.811 4.352,-2.432 0.981,-1.664 1.472,-3.861 1.472,-6.592 0,-2.773 -0.491,-4.971 -1.472,-6.592003 -0.982,-1.6213 -2.432,-2.432 -4.352,-2.432 -1.963,0 -3.435,0.8107 -4.416,2.432 -0.939,1.621003 -1.408,3.819003 -1.408,6.592003 0,2.731 0.469,4.928 1.408,6.592 0.981,1.621 2.453,2.432 4.416,2.432 z m 33.196,20.352 c -2.475,0 -4.715,-0.277 -6.72,-0.832 -2.006,-0.555 -3.606,-1.429 -4.8,-2.624 -1.195,-1.195 -1.792,-2.731 -1.792,-4.608 0,-2.56 1.514,-4.693 4.544,-6.4 v -0.256 c -0.811,-0.555 -1.515,-1.259 -2.112,-2.112 -0.555,-0.853 -0.832,-1.941 -0.832,-3.264 0,-1.152 0.341,-2.261 1.024,-3.328 0.682,-1.067 1.536,-1.941 2.56,-2.624 v -0.256 c -1.11,-0.768 -2.112,-1.877 -3.008,-3.328 -0.854,-1.451 -1.28,-3.093 -1.28,-4.928 0,-2.560003 0.618,-4.672003 1.856,-6.336003 1.237,-1.7067 2.858,-2.9867 4.864,-3.84 2.005,-0.8533 4.138,-1.28 6.4,-1.28 1.877,0 3.52,0.256 4.928,0.768 h 11.584 v 6.848 h -5.056 c 0.298,0.4693 0.533,1.0667 0.704,1.792 0.213,0.725 0.32,1.515 0.32,2.368003 0,2.432 -0.555,4.437 -1.664,6.016 -1.11,1.579 -2.603,2.752 -4.48,3.52 -1.878,0.768 -3.99,1.152 -6.336,1.152 -1.238,0 -2.518,-0.213 -3.84,-0.64 -0.768,0.64 -1.152,1.429 -1.152,2.368 0,0.811 0.362,1.408 1.088,1.792 0.725,0.384 1.962,0.576 3.711,0.576 h 5.121 c 3.925,0 6.912,0.64 8.96,1.92 2.09,1.237 3.136,3.285 3.136,6.144 0,2.176 -0.726,4.117 -2.176,5.824 -1.451,1.749 -3.499,3.115 -6.144,4.096 -2.646,0.981 -5.782,1.472 -9.408,1.472 z m 0.704,-29.248 c 1.237,0 2.261,-0.448 3.072,-1.344 0.853,-0.896 1.28,-2.219 1.28,-3.968 0,-1.664003 -0.427,-2.922703 -1.28,-3.776003 -0.811,-0.896 -1.835,-1.344 -3.072,-1.344 -1.238,0 -2.283,0.4267 -3.136,1.28 -0.811,0.8533 -1.216,2.133 -1.216,3.840003 0,1.749 0.405,3.072 1.216,3.968 0.853,0.896 1.898,1.344 3.136,1.344 z m 0.768,23.36 c 2.133,0 3.882,-0.384 5.248,-1.152 1.365,-0.768 2.048,-1.685 2.048,-2.752 0,-0.981 -0.427,-1.643 -1.28,-1.984 -0.811,-0.341 -2.006,-0.512 -3.584,-0.512 h -3.264 c -1.067,0 -1.963,-0.043 -2.688,-0.128 -0.683,-0.043 -1.28,-0.128 -1.792,-0.256 -1.152,1.024 -1.728,2.069 -1.728,3.136 0,1.195 0.64,2.091 1.92,2.688 1.322,0.64 3.029,0.96 5.12,0.96 z"
     fill="#1772c0"
     id="path190" />
  <rect
     y="113.06302"
     width="40"
     height="8"
     rx="4"
     fill="#0065bd"
     id="rect192"
     x="0" />
  <rect
     width="8.9999981"
     height="59.257595"
     rx="4.499999"
     transform="matrix(0.87646417,-0.48146709,0.45971202,0.88806805,0,0)"
     fill="#0065bd"
     id="rect194"
     x="-7.2638726"
     y="20.308918" />
  <rect
     width="8.9999981"
     height="71.8274"
     rx="4.499999"
     transform="matrix(0.87646417,-0.48146709,0.45971202,0.88806805,0,0)"
     fill="#0065bd"
     fill-opacity="0.9"
     id="rect196"
     x="8.6250229"
     y="7.738925" />
  <rect
     width="8.9999981"
     height="59.257595"
     rx="4.499999"
     transform="matrix(0.87646417,-0.48146709,0.45971202,0.88806805,0,0)"
     fill="#0065bd"
     fill-opacity="0.8"
     id="rect198"
     x="25.396881"
     y="20.308895" />
  <rect
     width="8.9999981"
     height="46.338097"
     rx="4.499999"
     transform="matrix(0.87646417,-0.48146709,0.45971202,0.88806805,0,0)"
     fill="#0065bd"
     fill-opacity="0.7"
     id="rect200"
     x="41.285561"
     y="33.2286" />
  <path
     d="m 92,66.251417 c -1.817,-0.6775 -3.8855,-1.9012 -5.7828,-3.1846 -3.6754,-2.4861 -8.5937,-2.5302 -12.0914,0.2002 -6.0999,4.7615 -9.3337,6.3675 -15.4591,9.3742 m 0,0 c -4.792,2.3522 -9.8933,4.5683 -15.8998,6.4862 -5.461,1.7436 -8.2064,7.6593 -4.4135,11.9578 7.8375,8.8828 23.9309,21.583803 53.6466,25.301803 M 58.6667,72.641217 c 7.619,9.339 14.2857,15.7288 33.3333,18.678"
     stroke="#000000"
     stroke-opacity="0.8"
     stroke-width="9"
     stroke-linecap="round"
     id="path202" />
  <path
     d="m 108.588,121.38702 c -0.828,0 -1.548,-0.306 -2.16,-0.918 -0.576,-0.612 -0.864,-1.332 -0.864,-2.16 V 96.385017 c 0,-0.828 0.288,-1.548 0.864,-2.16 0.612,-0.612 1.332,-0.918 2.16,-0.918 h 2.214 c 0.864,0 1.584,0.306 2.16,0.918 0.612,0.576 0.936,1.296 0.972,2.16 l 0.054,0.432 c 0,0.036 0.018,0.054 0.054,0.054 l 0.108,-0.108 c 2.34,-2.664 5.148,-3.996 8.424,-3.996 3.276,0 5.634,0.936 7.074,2.808 1.44,1.836 2.16,4.986003 2.16,9.450003 v 13.284 c 0,0.828 -0.306,1.548 -0.918,2.16 -0.576,0.612 -1.278,0.918 -2.106,0.918 h -2.376 c -0.828,0 -1.548,-0.306 -2.16,-0.918 -0.612,-0.612 -0.918,-1.332 -0.918,-2.16 v -13.014 c 0,-2.16 -0.288,-3.636 -0.864,-4.428 -0.576,-0.828 -1.62,-1.242003 -3.132,-1.242003 -1.26,0 -2.43,0.522003 -3.51,1.566003 -1.044,1.008 -1.566,2.106 -1.566,3.294 v 13.824 c 0,0.828 -0.306,1.548 -0.918,2.16 -0.576,0.612 -1.278,0.918 -2.106,0.918 z m 33.711,0 c -0.828,0 -1.548,-0.306 -2.16,-0.918 -0.612,-0.612 -0.918,-1.332 -0.918,-2.16 V 85.045017 c 0,-0.828 0.306,-1.548 0.918,-2.16 0.612,-0.612 1.332,-0.918 2.16,-0.918 h 3.078 c 0.828,0 1.53,0.306 2.106,0.918 0.612,0.612 0.918,1.332 0.918,2.16 v 11.88 c 0,0.324 0.162,0.486 0.486,0.486 h 11.124 c 0.324,0 0.486,-0.162 0.486,-0.486 v -11.88 c 0,-0.828 0.288,-1.548 0.864,-2.16 0.612,-0.612 1.332,-0.918 2.16,-0.918 h 3.078 c 0.828,0 1.548,0.306 2.16,0.918 0.612,0.612 0.918,1.332 0.918,2.16 v 33.264003 c 0,0.828 -0.306,1.548 -0.918,2.16 -0.612,0.612 -1.332,0.918 -2.16,0.918 h -3.078 c -0.828,0 -1.548,-0.306 -2.16,-0.918 -0.576,-0.612 -0.864,-1.332 -0.864,-2.16 v -13.5 c 0,-0.288 -0.162,-0.432 -0.486,-0.432 h -11.124 c -0.324,0 -0.486,0.144 -0.486,0.432 v 13.5 c 0,0.828 -0.306,1.548 -0.918,2.16 -0.576,0.612 -1.278,0.918 -2.106,0.918 z m 48.266,-12.852 c -4.392,0 -6.588,1.35 -6.588,4.05 0,0.972 0.288,1.746 0.864,2.322 0.576,0.54 1.35,0.81 2.322,0.81 1.728,0 3.132,-0.54 4.212,-1.62 1.08,-1.116 1.62,-2.592 1.62,-4.428 v -0.648 c 0,-0.324 -0.162,-0.486 -0.486,-0.486 z m -6.048,13.392 c -2.484,0 -4.536,-0.792 -6.156,-2.376 -1.584,-1.62 -2.376,-3.708 -2.376,-6.264 0,-6.552 4.86,-9.828 14.58,-9.828 h 1.944 c 0.324,0 0.486,-0.144 0.486,-0.432 v -0.27 c 0,-1.368 -0.36,-2.358 -1.08,-2.970003 -0.684,-0.612 -1.854,-0.918 -3.51,-0.918 -2.196,0 -4.824,0.342 -7.884,1.026 -0.756,0.144003 -1.44,-0.018 -2.052,-0.486 -0.576,-0.468 -0.864,-1.08 -0.864,-1.836 v -0.108 c 0,-0.9 0.27,-1.71 0.81,-2.43 0.576,-0.756 1.296,-1.206 2.16,-1.35 3.168,-0.612 5.904,-0.918 8.208,-0.918 4.716,0 8.046,0.846 9.99,2.538 1.98,1.692 2.97,4.5 2.97,8.424003 v 14.58 c 0,0.828 -0.306,1.548 -0.918,2.16 -0.612,0.612 -1.332,0.918 -2.16,0.918 h -1.998 c -0.864,0 -1.602,-0.288 -2.214,-0.864 -0.612,-0.612 -0.936,-1.35 -0.972,-2.214 v -0.594 c 0,-0.036 -0.018,-0.054 -0.054,-0.054 -0.072,0 -0.108,0.018 -0.108,0.054 -2.268,2.808 -5.202,4.212 -8.802,4.212 z m 27.114,-0.54 c -0.828,0 -1.548,-0.306 -2.16,-0.918 -0.576,-0.612 -0.864,-1.332 -0.864,-2.16 V 96.385017 c 0,-0.828 0.288,-1.548 0.864,-2.16 0.612,-0.612 1.332,-0.918 2.16,-0.918 h 2.214 c 0.864,0 1.584,0.306 2.16,0.918 0.612,0.576 0.936,1.296 0.972,2.16 l 0.054,0.432 c 0,0.036 0.018,0.054 0.054,0.054 l 0.108,-0.108 c 2.34,-2.664 5.148,-3.996 8.424,-3.996 3.276,0 5.634,0.936 7.074,2.808 1.44,1.836 2.16,4.986003 2.16,9.450003 v 13.284 c 0,0.828 -0.306,1.548 -0.918,2.16 -0.576,0.612 -1.278,0.918 -2.106,0.918 h -2.376 c -0.828,0 -1.548,-0.306 -2.16,-0.918 -0.612,-0.612 -0.918,-1.332 -0.918,-2.16 v -13.014 c 0,-2.16 -0.288,-3.636 -0.864,-4.428 -0.576,-0.828 -1.62,-1.242003 -3.132,-1.242003 -1.26,0 -2.43,0.522003 -3.51,1.566003 -1.044,1.008 -1.566,2.106 -1.566,3.294 v 13.824 c 0,0.828 -0.306,1.548 -0.918,2.16 -0.576,0.612 -1.278,0.918 -2.106,0.918 z m 42.405,-22.140003 c -3.6,0 -5.4,2.700003 -5.4,8.100003 0,2.736 0.486,4.77 1.458,6.102 0.972,1.332 2.286,1.998 3.942,1.998 1.44,0 2.7,-0.486 3.78,-1.458 1.08,-0.972 1.62,-2.07 1.62,-3.294 v -6.696 c 0,-1.224 -0.54,-2.322 -1.62,-3.294 -1.08,-0.972003 -2.34,-1.458003 -3.78,-1.458003 z m -2.97,22.680003 c -3.204,0 -5.832,-1.278 -7.884,-3.834 -2.052,-2.592 -3.078,-6.174 -3.078,-10.746 0,-4.68 0.99,-8.280003 2.97,-10.800003 1.98,-2.52 4.644,-3.78 7.992,-3.78 2.952,0 5.634,1.098 8.046,3.294 0.036,0.036 0.072,0.054 0.108,0.054 0.036,0 0.054,-0.018 0.054,-0.054 v -12.096 c 0,-0.828 0.288,-1.548 0.864,-2.16 0.612,-0.612 1.332,-0.918 2.16,-0.918 h 2.646 c 0.828,0 1.53,0.306 2.106,0.918 0.612,0.612 0.918,1.332 0.918,2.16 v 34.344003 c 0,0.828 -0.306,1.548 -0.918,2.16 -0.576,0.612 -1.278,0.918 -2.106,0.918 h -2.052 c -0.864,0 -1.602,-0.288 -2.214,-0.864 -0.576,-0.612 -0.882,-1.35 -0.918,-2.214 v -0.432 c 0,-0.036 -0.018,-0.054 -0.054,-0.054 l -0.108,0.108 c -2.268,2.664 -5.112,3.996 -8.532,3.996 z m 34.347,-11.34 c -3.888,-0.72 -6.678,-1.836 -8.37,-3.348 -1.656,-1.512 -2.484,-3.51 -2.484,-5.994 0,-2.664003 0.99,-4.734003 2.97,-6.210003 2.016,-1.512 5.04,-2.268 9.072,-2.268 2.376,0 4.806,0.198 7.29,0.594 0.864,0.144 1.566,0.558 2.106,1.242 0.576,0.684 0.864,1.476 0.864,2.376 v 0.27 c 0,0.756 -0.306,1.368 -0.918,1.836 -0.576,0.468 -1.242,0.63 -1.998,0.486 -2.34,-0.468 -4.5,-0.702 -6.48,-0.702 -1.476,0 -2.52,0.18 -3.132,0.54 -0.576,0.36 -0.864,0.900003 -0.864,1.620003 0,1.368 1.08,2.268 3.24,2.7 4.104,0.684 6.966,1.764 8.586,3.24 1.656,1.476 2.484,3.618 2.484,6.426 0,2.7 -1.008,4.806 -3.024,6.318 -2.016,1.476 -4.95,2.214 -8.802,2.214 -2.808,0 -5.472,-0.27 -7.992,-0.81 -0.864,-0.18 -1.584,-0.63 -2.16,-1.35 -0.54,-0.756 -0.81,-1.602 -0.81,-2.538 v -0.432 c 0,-0.756 0.306,-1.332 0.918,-1.728 0.612,-0.432 1.296,-0.558 2.052,-0.378 2.34,0.612 4.644,0.918 6.912,0.918 2.664,0 3.996,-0.774 3.996,-2.322 0,-0.72 -0.252,-1.278 -0.756,-1.674 -0.468,-0.396 -1.368,-0.738 -2.7,-1.026 z"
     fill="#000000"
     fill-opacity="0.8"
     id="path204" />
</svg>
